<svg width="116" height="24" viewBox="0 0 116 24" fill="none" xmlns="http://www.w3.org/2000/svg">
<path d="M1.59801 19V4.45455H6.78267C7.90956 4.45455 8.8447 4.64867 9.58807 5.03693C10.3362 5.42519 10.8949 5.96259 11.2642 6.64915C11.6335 7.33097 11.8182 8.11932 11.8182 9.0142C11.8182 9.90436 11.6312 10.688 11.2571 11.3651C10.8878 12.0374 10.3291 12.5606 9.58097 12.9347C8.83759 13.3087 7.90246 13.4957 6.77557 13.4957H2.84801V11.6065H6.5767C7.28693 11.6065 7.86458 11.5047 8.30966 11.3011C8.75947 11.0975 9.08854 10.8016 9.29688 10.4134C9.50521 10.0251 9.60938 9.55871 9.60938 9.0142C9.60938 8.46496 9.50284 7.98911 9.28977 7.58665C9.08144 7.18419 8.75237 6.87642 8.30256 6.66335C7.85748 6.44555 7.27273 6.33665 6.5483 6.33665H3.79261V19H1.59801ZM8.77841 12.4375L12.3722 19H9.87216L6.34943 12.4375H8.77841ZM16.8929 19.2415C16.2016 19.2415 15.5766 19.1136 15.0179 18.858C14.4592 18.5975 14.0165 18.2211 13.6898 17.7287C13.3678 17.2363 13.2068 16.6326 13.2068 15.9176C13.2068 15.3021 13.3252 14.7955 13.5619 14.3977C13.7987 14 14.1183 13.6851 14.5207 13.4531C14.9232 13.2211 15.373 13.0459 15.8702 12.9276C16.3673 12.8092 16.874 12.7192 17.3901 12.6577C18.0435 12.5819 18.5738 12.5204 18.981 12.473C19.3882 12.4209 19.6841 12.3381 19.8687 12.2244C20.0534 12.1108 20.1457 11.9261 20.1457 11.6705V11.6207C20.1457 11.0005 19.9705 10.5199 19.6202 10.179C19.2745 9.83807 18.7584 9.66761 18.0719 9.66761C17.3569 9.66761 16.7935 9.82623 16.3815 10.1435C15.9743 10.456 15.6926 10.804 15.5364 11.1875L13.5406 10.733C13.7774 10.0701 14.123 9.53504 14.5776 9.12784C15.0368 8.71591 15.5648 8.41761 16.1614 8.23295C16.758 8.04356 17.3853 7.94886 18.0435 7.94886C18.4791 7.94886 18.9407 8.00095 19.4284 8.10511C19.9208 8.20455 20.3801 8.3892 20.8062 8.65909C21.2371 8.92898 21.5899 9.31487 21.8645 9.81676C22.1391 10.3139 22.2764 10.9602 22.2764 11.7557V19H20.2026V17.5085H20.1173C19.98 17.7831 19.7741 18.053 19.4994 18.3182C19.2248 18.5833 18.8721 18.8035 18.4412 18.9787C18.0103 19.1539 17.4942 19.2415 16.8929 19.2415ZM17.3545 17.5369C17.9417 17.5369 18.4436 17.4209 18.8602 17.1889C19.2816 16.9569 19.6012 16.6539 19.819 16.2798C20.0416 15.901 20.1528 15.4962 20.1528 15.0653V13.6591C20.0771 13.7348 19.9303 13.8059 19.7125 13.8722C19.4994 13.9337 19.2556 13.9882 18.981 14.0355C18.7063 14.0781 18.4388 14.1184 18.1784 14.1562C17.918 14.1894 17.7002 14.2178 17.525 14.2415C17.1131 14.2936 16.7366 14.3812 16.3957 14.5043C16.0596 14.6274 15.7897 14.8049 15.5861 15.0369C15.3872 15.2642 15.2878 15.5672 15.2878 15.946C15.2878 16.4716 15.4819 16.8693 15.8702 17.1392C16.2584 17.4044 16.7532 17.5369 17.3545 17.5369ZM24.2776 19V17.544L30.1867 10.0369V9.9375H24.4694V8.09091H32.8359V9.6392L27.154 17.054V17.1534H33.0347V19H24.2776ZM41.8506 14.4759V8.09091H43.9813V19H41.8932V17.1108H41.7795C41.5286 17.6932 41.1261 18.1785 40.5722 18.5668C40.0229 18.9503 39.3387 19.142 38.5196 19.142C37.8188 19.142 37.1986 18.9882 36.6588 18.6804C36.1238 18.3679 35.7024 17.9062 35.3946 17.2955C35.0916 16.6847 34.9401 15.9295 34.9401 15.0298V8.09091H37.0636V14.7741C37.0636 15.5175 37.2696 16.1094 37.6815 16.5497C38.0935 16.9901 38.6285 17.2102 39.2866 17.2102C39.6844 17.2102 40.0797 17.1108 40.4727 16.9119C40.8705 16.7131 41.1995 16.4124 41.4599 16.0099C41.7251 15.6075 41.8553 15.0961 41.8506 14.4759ZM46.2346 19V8.09091H48.2729V9.86648H48.4079C48.6352 9.26515 49.0068 8.7964 49.5229 8.46023C50.039 8.11932 50.6569 7.94886 51.3766 7.94886C52.1058 7.94886 52.7166 8.11932 53.209 8.46023C53.7062 8.80114 54.0731 9.26989 54.3099 9.86648H54.4235C54.6839 9.28409 55.0982 8.82008 55.6664 8.47443C56.2346 8.12405 56.9117 7.94886 57.6977 7.94886C58.6872 7.94886 59.4945 8.259 60.1195 8.87926C60.7493 9.49953 61.0641 10.4347 61.0641 11.6847V19H58.9406V11.8835C58.9406 11.1449 58.7393 10.6098 58.3369 10.2784C57.9344 9.94697 57.4538 9.78125 56.8951 9.78125C56.2038 9.78125 55.6664 9.99432 55.2829 10.4205C54.8994 10.8419 54.7076 11.384 54.7076 12.0469V19H52.5911V11.7486C52.5911 11.1567 52.4065 10.6809 52.0371 10.321C51.6678 9.96117 51.1872 9.78125 50.5954 9.78125C50.1929 9.78125 49.8212 9.88778 49.4803 10.1009C49.1442 10.3092 48.8719 10.6004 48.6636 10.9744C48.46 11.3485 48.3582 11.7817 48.3582 12.2741V19H46.2346ZM67.9055 19.2202C66.8828 19.2202 65.9903 18.9858 65.228 18.517C64.4657 18.0483 63.8738 17.3925 63.4524 16.5497C63.031 15.7069 62.8203 14.7221 62.8203 13.5952C62.8203 12.4635 63.031 11.474 63.4524 10.6264C63.8738 9.77888 64.4657 9.12074 65.228 8.65199C65.9903 8.18324 66.8828 7.94886 67.9055 7.94886C68.9283 7.94886 69.8208 8.18324 70.5831 8.65199C71.3454 9.12074 71.9373 9.77888 72.3587 10.6264C72.7801 11.474 72.9908 12.4635 72.9908 13.5952C72.9908 14.7221 72.7801 15.7069 72.3587 16.5497C71.9373 17.3925 71.3454 18.0483 70.5831 18.517C69.8208 18.9858 68.9283 19.2202 67.9055 19.2202ZM67.9126 17.4375C68.5755 17.4375 69.1248 17.2623 69.5604 16.9119C69.996 16.5616 70.3179 16.0952 70.5263 15.5128C70.7393 14.9304 70.8459 14.2888 70.8459 13.5881C70.8459 12.892 70.7393 12.2528 70.5263 11.6705C70.3179 11.0833 69.996 10.6122 69.5604 10.2571C69.1248 9.90199 68.5755 9.72443 67.9126 9.72443C67.245 9.72443 66.6911 9.90199 66.2507 10.2571C65.8151 10.6122 65.4908 11.0833 65.2777 11.6705C65.0694 12.2528 64.9652 12.892 64.9652 13.5881C64.9652 14.2888 65.0694 14.9304 65.2777 15.5128C65.4908 16.0952 65.8151 16.5616 66.2507 16.9119C66.6911 17.2623 67.245 17.4375 67.9126 17.4375ZM83.7224 8.09091L79.7665 19H77.4938L73.5307 8.09091H75.8105L78.5733 16.4858H78.6869L81.4426 8.09091H83.7224ZM93.2929 10.7543L91.3682 11.0952C91.2877 10.849 91.1599 10.6146 90.9847 10.392C90.8142 10.1695 90.5822 9.98722 90.2886 9.84517C89.9951 9.70312 89.6281 9.6321 89.1878 9.6321C88.5865 9.6321 88.0846 9.76705 87.6821 10.0369C87.2796 10.3021 87.0784 10.6454 87.0784 11.0668C87.0784 11.4313 87.2134 11.7249 87.4832 11.9474C87.7531 12.17 88.1887 12.3523 88.7901 12.4943L90.523 12.892C91.5268 13.1241 92.2749 13.4815 92.7673 13.9645C93.2598 14.4474 93.506 15.0748 93.506 15.8466C93.506 16.5 93.3166 17.0824 92.9378 17.5938C92.5637 18.1004 92.0405 18.4981 91.3682 18.7869C90.7006 19.0758 89.9264 19.2202 89.0457 19.2202C87.8242 19.2202 86.8275 18.9598 86.0557 18.4389C85.2839 17.9134 84.8104 17.1676 84.6352 16.2017L86.6878 15.8892C86.8156 16.4242 87.0784 16.8291 87.4761 17.1037C87.8739 17.3736 88.3923 17.5085 89.0315 17.5085C89.7276 17.5085 90.2839 17.3641 90.7006 17.0753C91.1172 16.7817 91.3256 16.4242 91.3256 16.0028C91.3256 15.6619 91.1977 15.3755 90.942 15.1435C90.6911 14.9115 90.3052 14.7363 89.7844 14.6179L87.9378 14.2131C86.9198 13.9811 86.167 13.6117 85.6793 13.1051C85.1963 12.5985 84.9548 11.9569 84.9548 11.1804C84.9548 10.5365 85.1348 9.97301 85.4946 9.49006C85.8545 9.0071 86.3516 8.63068 86.9861 8.3608C87.6206 8.08617 88.3474 7.94886 89.1665 7.94886C90.3455 7.94886 91.2735 8.20455 91.9506 8.71591C92.6277 9.22254 93.0751 9.90199 93.2929 10.7543ZM97.194 15.2997L97.1798 12.7074H97.5491L101.896 8.09091H104.438L99.4809 13.3466H99.1471L97.194 15.2997ZM95.2408 19V4.45455H97.3644V19H95.2408ZM102.13 19L98.2238 13.8153L99.6869 12.331L104.737 19H102.13ZM107.175 23.0909C106.857 23.0909 106.569 23.0649 106.308 23.0128C106.048 22.9654 105.854 22.9134 105.726 22.8565L106.237 21.1165C106.625 21.2206 106.971 21.2656 107.274 21.2514C107.577 21.2372 107.845 21.1236 108.077 20.9105C108.313 20.6974 108.522 20.3494 108.702 19.8665L108.964 19.142L104.973 8.09091H107.246L110.008 16.5568H110.122L112.885 8.09091H115.165L110.669 20.456C110.461 21.0241 110.195 21.5047 109.873 21.8977C109.551 22.2955 109.168 22.5938 108.723 22.7926C108.278 22.9915 107.762 23.0909 107.175 23.0909Z" fill="#F7F7F7"/>
</svg>
