<svg width="238" height="24" viewBox="0 0 238 24" fill="none" xmlns="http://www.w3.org/2000/svg">
<path d="M1.59801 19V4.45455H6.78267C7.90956 4.45455 8.8447 4.64867 9.58807 5.03693C10.3362 5.42519 10.8949 5.96259 11.2642 6.64915C11.6335 7.33097 11.8182 8.11932 11.8182 9.0142C11.8182 9.90436 11.6312 10.688 11.2571 11.3651C10.8878 12.0374 10.3291 12.5606 9.58097 12.9347C8.83759 13.3087 7.90246 13.4957 6.77557 13.4957H2.84801V11.6065H6.5767C7.28693 11.6065 7.86458 11.5047 8.30966 11.3011C8.75947 11.0975 9.08854 10.8016 9.29688 10.4134C9.50521 10.0251 9.60938 9.55871 9.60938 9.0142C9.60938 8.46496 9.50284 7.98911 9.28977 7.58665C9.08144 7.18419 8.75237 6.87642 8.30256 6.66335C7.85748 6.44555 7.27273 6.33665 6.5483 6.33665H3.79261V19H1.59801ZM8.77841 12.4375L12.3722 19H9.87216L6.34943 12.4375H8.77841ZM16.8929 19.2415C16.2016 19.2415 15.5766 19.1136 15.0179 18.858C14.4592 18.5975 14.0165 18.2211 13.6898 17.7287C13.3678 17.2363 13.2068 16.6326 13.2068 15.9176C13.2068 15.3021 13.3252 14.7955 13.5619 14.3977C13.7987 14 14.1183 13.6851 14.5207 13.4531C14.9232 13.2211 15.373 13.0459 15.8702 12.9276C16.3673 12.8092 16.874 12.7192 17.3901 12.6577C18.0435 12.5819 18.5738 12.5204 18.981 12.473C19.3882 12.4209 19.6841 12.3381 19.8687 12.2244C20.0534 12.1108 20.1457 11.9261 20.1457 11.6705V11.6207C20.1457 11.0005 19.9705 10.5199 19.6202 10.179C19.2745 9.83807 18.7584 9.66761 18.0719 9.66761C17.3569 9.66761 16.7935 9.82623 16.3815 10.1435C15.9743 10.456 15.6926 10.804 15.5364 11.1875L13.5406 10.733C13.7774 10.0701 14.123 9.53504 14.5776 9.12784C15.0368 8.71591 15.5648 8.41761 16.1614 8.23295C16.758 8.04356 17.3853 7.94886 18.0435 7.94886C18.4791 7.94886 18.9407 8.00095 19.4284 8.10511C19.9208 8.20455 20.3801 8.3892 20.8062 8.65909C21.2371 8.92898 21.5899 9.31487 21.8645 9.81676C22.1391 10.3139 22.2764 10.9602 22.2764 11.7557V19H20.2026V17.5085H20.1173C19.98 17.7831 19.7741 18.053 19.4994 18.3182C19.2248 18.5833 18.8721 18.8035 18.4412 18.9787C18.0103 19.1539 17.4942 19.2415 16.8929 19.2415ZM17.3545 17.5369C17.9417 17.5369 18.4436 17.4209 18.8602 17.1889C19.2816 16.9569 19.6012 16.6539 19.819 16.2798C20.0416 15.901 20.1528 15.4962 20.1528 15.0653V13.6591C20.0771 13.7348 19.9303 13.8059 19.7125 13.8722C19.4994 13.9337 19.2556 13.9882 18.981 14.0355C18.7063 14.0781 18.4388 14.1184 18.1784 14.1562C17.918 14.1894 17.7002 14.2178 17.525 14.2415C17.1131 14.2936 16.7366 14.3812 16.3957 14.5043C16.0596 14.6274 15.7897 14.8049 15.5861 15.0369C15.3872 15.2642 15.2878 15.5672 15.2878 15.946C15.2878 16.4716 15.4819 16.8693 15.8702 17.1392C16.2584 17.4044 16.7532 17.5369 17.3545 17.5369ZM24.2776 19V17.544L30.1867 10.0369V9.9375H24.4694V8.09091H32.8359V9.6392L27.154 17.054V17.1534H33.0347V19H24.2776ZM41.8506 14.4759V8.09091H43.9813V19H41.8932V17.1108H41.7795C41.5286 17.6932 41.1261 18.1785 40.5722 18.5668C40.0229 18.9503 39.3387 19.142 38.5196 19.142C37.8188 19.142 37.1986 18.9882 36.6588 18.6804C36.1238 18.3679 35.7024 17.9062 35.3946 17.2955C35.0916 16.6847 34.9401 15.9295 34.9401 15.0298V8.09091H37.0636V14.7741C37.0636 15.5175 37.2696 16.1094 37.6815 16.5497C38.0935 16.9901 38.6285 17.2102 39.2866 17.2102C39.6844 17.2102 40.0797 17.1108 40.4727 16.9119C40.8705 16.7131 41.1995 16.4124 41.4599 16.0099C41.7251 15.6075 41.8553 15.0961 41.8506 14.4759ZM46.2346 19V8.09091H48.2729V9.86648H48.4079C48.6352 9.26515 49.0068 8.7964 49.5229 8.46023C50.039 8.11932 50.6569 7.94886 51.3766 7.94886C52.1058 7.94886 52.7166 8.11932 53.209 8.46023C53.7062 8.80114 54.0731 9.26989 54.3099 9.86648H54.4235C54.6839 9.28409 55.0982 8.82008 55.6664 8.47443C56.2346 8.12405 56.9117 7.94886 57.6977 7.94886C58.6872 7.94886 59.4945 8.259 60.1195 8.87926C60.7493 9.49953 61.0641 10.4347 61.0641 11.6847V19H58.9406V11.8835C58.9406 11.1449 58.7393 10.6098 58.3369 10.2784C57.9344 9.94697 57.4538 9.78125 56.8951 9.78125C56.2038 9.78125 55.6664 9.99432 55.2829 10.4205C54.8994 10.8419 54.7076 11.384 54.7076 12.0469V19H52.5911V11.7486C52.5911 11.1567 52.4065 10.6809 52.0371 10.321C51.6678 9.96117 51.1872 9.78125 50.5954 9.78125C50.1929 9.78125 49.8212 9.88778 49.4803 10.1009C49.1442 10.3092 48.8719 10.6004 48.6636 10.9744C48.46 11.3485 48.3582 11.7817 48.3582 12.2741V19H46.2346ZM67.9055 19.2202C66.8828 19.2202 65.9903 18.9858 65.228 18.517C64.4657 18.0483 63.8738 17.3925 63.4524 16.5497C63.031 15.7069 62.8203 14.7221 62.8203 13.5952C62.8203 12.4635 63.031 11.474 63.4524 10.6264C63.8738 9.77888 64.4657 9.12074 65.228 8.65199C65.9903 8.18324 66.8828 7.94886 67.9055 7.94886C68.9283 7.94886 69.8208 8.18324 70.5831 8.65199C71.3454 9.12074 71.9373 9.77888 72.3587 10.6264C72.7801 11.474 72.9908 12.4635 72.9908 13.5952C72.9908 14.7221 72.7801 15.7069 72.3587 16.5497C71.9373 17.3925 71.3454 18.0483 70.5831 18.517C69.8208 18.9858 68.9283 19.2202 67.9055 19.2202ZM67.9126 17.4375C68.5755 17.4375 69.1248 17.2623 69.5604 16.9119C69.996 16.5616 70.3179 16.0952 70.5263 15.5128C70.7393 14.9304 70.8459 14.2888 70.8459 13.5881C70.8459 12.892 70.7393 12.2528 70.5263 11.6705C70.3179 11.0833 69.996 10.6122 69.5604 10.2571C69.1248 9.90199 68.5755 9.72443 67.9126 9.72443C67.245 9.72443 66.6911 9.90199 66.2507 10.2571C65.8151 10.6122 65.4908 11.0833 65.2777 11.6705C65.0694 12.2528 64.9652 12.892 64.9652 13.5881C64.9652 14.2888 65.0694 14.9304 65.2777 15.5128C65.4908 16.0952 65.8151 16.5616 66.2507 16.9119C66.6911 17.2623 67.245 17.4375 67.9126 17.4375ZM83.7224 8.09091L79.7665 19H77.4938L73.5307 8.09091H75.8105L78.5733 16.4858H78.6869L81.4426 8.09091H83.7224ZM93.2929 10.7543L91.3682 11.0952C91.2877 10.849 91.1599 10.6146 90.9847 10.392C90.8142 10.1695 90.5822 9.98722 90.2886 9.84517C89.9951 9.70312 89.6281 9.6321 89.1878 9.6321C88.5865 9.6321 88.0846 9.76705 87.6821 10.0369C87.2796 10.3021 87.0784 10.6454 87.0784 11.0668C87.0784 11.4313 87.2134 11.7249 87.4832 11.9474C87.7531 12.17 88.1887 12.3523 88.7901 12.4943L90.523 12.892C91.5268 13.1241 92.2749 13.4815 92.7673 13.9645C93.2598 14.4474 93.506 15.0748 93.506 15.8466C93.506 16.5 93.3166 17.0824 92.9378 17.5938C92.5637 18.1004 92.0405 18.4981 91.3682 18.7869C90.7006 19.0758 89.9264 19.2202 89.0457 19.2202C87.8242 19.2202 86.8275 18.9598 86.0557 18.4389C85.2839 17.9134 84.8104 17.1676 84.6352 16.2017L86.6878 15.8892C86.8156 16.4242 87.0784 16.8291 87.4761 17.1037C87.8739 17.3736 88.3923 17.5085 89.0315 17.5085C89.7276 17.5085 90.2839 17.3641 90.7006 17.0753C91.1172 16.7817 91.3256 16.4242 91.3256 16.0028C91.3256 15.6619 91.1977 15.3755 90.942 15.1435C90.6911 14.9115 90.3052 14.7363 89.7844 14.6179L87.9378 14.2131C86.9198 13.9811 86.167 13.6117 85.6793 13.1051C85.1963 12.5985 84.9548 11.9569 84.9548 11.1804C84.9548 10.5365 85.1348 9.97301 85.4946 9.49006C85.8545 9.0071 86.3516 8.63068 86.9861 8.3608C87.6206 8.08617 88.3474 7.94886 89.1665 7.94886C90.3455 7.94886 91.2735 8.20455 91.9506 8.71591C92.6277 9.22254 93.0751 9.90199 93.2929 10.7543ZM97.194 15.2997L97.1798 12.7074H97.5491L101.896 8.09091H104.438L99.4809 13.3466H99.1471L97.194 15.2997ZM95.2408 19V4.45455H97.3644V19H95.2408ZM102.13 19L98.2238 13.8153L99.6869 12.331L104.737 19H102.13ZM107.175 23.0909C106.857 23.0909 106.569 23.0649 106.308 23.0128C106.048 22.9654 105.854 22.9134 105.726 22.8565L106.237 21.1165C106.625 21.2206 106.971 21.2656 107.274 21.2514C107.577 21.2372 107.845 21.1236 108.077 20.9105C108.313 20.6974 108.522 20.3494 108.702 19.8665L108.964 19.142L104.973 8.09091H107.246L110.008 16.5568H110.122L112.885 8.09091H115.165L110.669 20.456C110.461 21.0241 110.195 21.5047 109.873 21.8977C109.551 22.2955 109.168 22.5938 108.723 22.7926C108.278 22.9915 107.762 23.0909 107.175 23.0909ZM133.505 9.18466H131.289C131.204 8.71117 131.045 8.29451 130.813 7.93466C130.581 7.57481 130.297 7.26941 129.961 7.01847C129.625 6.76752 129.248 6.57812 128.831 6.45028C128.42 6.32244 127.982 6.25852 127.518 6.25852C126.679 6.25852 125.929 6.46922 125.266 6.89062C124.608 7.31203 124.087 7.92992 123.704 8.74432C123.325 9.55871 123.135 10.553 123.135 11.7273C123.135 12.911 123.325 13.91 123.704 14.7244C124.087 15.5388 124.61 16.1544 125.273 16.571C125.936 16.9877 126.682 17.196 127.51 17.196C127.97 17.196 128.405 17.1345 128.817 17.0114C129.234 16.8835 129.61 16.6965 129.947 16.4503C130.283 16.2041 130.567 15.9034 130.799 15.5483C131.036 15.1884 131.199 14.7765 131.289 14.3125L133.505 14.3196C133.386 15.0346 133.157 15.6927 132.816 16.294C132.48 16.8906 132.046 17.4067 131.516 17.8423C130.991 18.2732 130.389 18.607 129.712 18.8438C129.035 19.0805 128.296 19.1989 127.496 19.1989C126.237 19.1989 125.115 18.9006 124.13 18.304C123.145 17.7027 122.368 16.8433 121.8 15.7259C121.237 14.6084 120.955 13.2756 120.955 11.7273C120.955 10.1742 121.239 8.84138 121.807 7.72869C122.375 6.61127 123.152 5.75426 124.137 5.15767C125.122 4.55634 126.242 4.25568 127.496 4.25568C128.268 4.25568 128.988 4.36695 129.655 4.58949C130.328 4.80729 130.931 5.12926 131.466 5.5554C132.001 5.9768 132.444 6.4929 132.795 7.10369C133.145 7.70975 133.382 8.40341 133.505 9.18466ZM139.956 19.2202C138.933 19.2202 138.04 18.9858 137.278 18.517C136.516 18.0483 135.924 17.3925 135.502 16.5497C135.081 15.7069 134.87 14.7221 134.87 13.5952C134.87 12.4635 135.081 11.474 135.502 10.6264C135.924 9.77888 136.516 9.12074 137.278 8.65199C138.04 8.18324 138.933 7.94886 139.956 7.94886C140.978 7.94886 141.871 8.18324 142.633 8.65199C143.395 9.12074 143.987 9.77888 144.409 10.6264C144.83 11.474 145.041 12.4635 145.041 13.5952C145.041 14.7221 144.83 15.7069 144.409 16.5497C143.987 17.3925 143.395 18.0483 142.633 18.517C141.871 18.9858 140.978 19.2202 139.956 19.2202ZM139.963 17.4375C140.626 17.4375 141.175 17.2623 141.61 16.9119C142.046 16.5616 142.368 16.0952 142.576 15.5128C142.789 14.9304 142.896 14.2888 142.896 13.5881C142.896 12.892 142.789 12.2528 142.576 11.6705C142.368 11.0833 142.046 10.6122 141.61 10.2571C141.175 9.90199 140.626 9.72443 139.963 9.72443C139.295 9.72443 138.741 9.90199 138.301 10.2571C137.865 10.6122 137.541 11.0833 137.328 11.6705C137.119 12.2528 137.015 12.892 137.015 13.5881C137.015 14.2888 137.119 14.9304 137.328 15.5128C137.541 16.0952 137.865 16.5616 138.301 16.9119C138.741 17.2623 139.295 17.4375 139.963 17.4375ZM148.935 12.5227V19H146.811V8.09091H148.849V9.86648H148.984C149.235 9.28883 149.628 8.82481 150.163 8.47443C150.703 8.12405 151.383 7.94886 152.202 7.94886C152.945 7.94886 153.596 8.10511 154.155 8.41761C154.714 8.72538 155.147 9.18466 155.455 9.79545C155.762 10.4062 155.916 11.1615 155.916 12.0611V19H153.793V12.3168C153.793 11.526 153.587 10.9081 153.175 10.4631C152.763 10.0133 152.197 9.78835 151.477 9.78835C150.985 9.78835 150.547 9.89489 150.163 10.108C149.785 10.321 149.484 10.6335 149.261 11.0455C149.044 11.4527 148.935 11.9451 148.935 12.5227ZM166.339 10.7543L164.414 11.0952C164.334 10.849 164.206 10.6146 164.031 10.392C163.86 10.1695 163.628 9.98722 163.335 9.84517C163.041 9.70312 162.674 9.6321 162.234 9.6321C161.633 9.6321 161.131 9.76705 160.728 10.0369C160.326 10.3021 160.125 10.6454 160.125 11.0668C160.125 11.4313 160.259 11.7249 160.529 11.9474C160.799 12.17 161.235 12.3523 161.836 12.4943L163.569 12.892C164.573 13.1241 165.321 13.4815 165.813 13.9645C166.306 14.4474 166.552 15.0748 166.552 15.8466C166.552 16.5 166.363 17.0824 165.984 17.5938C165.61 18.1004 165.087 18.4981 164.414 18.7869C163.747 19.0758 162.973 19.2202 162.092 19.2202C160.87 19.2202 159.874 18.9598 159.102 18.4389C158.33 17.9134 157.857 17.1676 157.681 16.2017L159.734 15.8892C159.862 16.4242 160.125 16.8291 160.522 17.1037C160.92 17.3736 161.438 17.5085 162.078 17.5085C162.774 17.5085 163.33 17.3641 163.747 17.0753C164.163 16.7817 164.372 16.4242 164.372 16.0028C164.372 15.6619 164.244 15.3755 163.988 15.1435C163.737 14.9115 163.351 14.7363 162.83 14.6179L160.984 14.2131C159.966 13.9811 159.213 13.6117 158.725 13.1051C158.242 12.5985 158.001 11.9569 158.001 11.1804C158.001 10.5365 158.181 9.97301 158.541 9.49006C158.901 9.0071 159.398 8.63068 160.032 8.3608C160.667 8.08617 161.393 7.94886 162.213 7.94886C163.392 7.94886 164.32 8.20455 164.997 8.71591C165.674 9.22254 166.121 9.90199 166.339 10.7543ZM173.379 8.09091V9.79545H167.42V8.09091H173.379ZM169.018 5.47727H171.142V15.7969C171.142 16.2088 171.204 16.5189 171.327 16.7273C171.45 16.9309 171.608 17.0705 171.803 17.1463C172.001 17.2173 172.217 17.2528 172.449 17.2528C172.619 17.2528 172.768 17.241 172.896 17.2173C173.024 17.1937 173.124 17.1747 173.195 17.1605L173.578 18.9148C173.455 18.9621 173.28 19.0095 173.053 19.0568C172.825 19.1089 172.541 19.1373 172.2 19.142C171.642 19.1515 171.121 19.0521 170.638 18.8438C170.155 18.6354 169.764 18.3134 169.466 17.8778C169.168 17.4422 169.018 16.8954 169.018 16.2372V5.47727ZM175.128 19V8.09091H177.181V9.82386H177.295C177.493 9.23674 177.844 8.77509 178.346 8.43892C178.852 8.09801 179.425 7.92756 180.064 7.92756C180.197 7.92756 180.353 7.93229 180.533 7.94176C180.718 7.95123 180.862 7.96307 180.966 7.97727V10.0085C180.881 9.98485 180.73 9.95881 180.512 9.9304C180.294 9.89725 180.076 9.88068 179.858 9.88068C179.357 9.88068 178.909 9.98722 178.516 10.2003C178.128 10.4086 177.82 10.6998 177.593 11.0739C177.366 11.4432 177.252 11.8646 177.252 12.3381V19H175.128ZM189.115 14.4759V8.09091H191.245V19H189.157V17.1108H189.044C188.793 17.6932 188.39 18.1785 187.836 18.5668C187.287 18.9503 186.603 19.142 185.784 19.142C185.083 19.142 184.463 18.9882 183.923 18.6804C183.388 18.3679 182.966 17.9062 182.659 17.2955C182.356 16.6847 182.204 15.9295 182.204 15.0298V8.09091H184.328V14.7741C184.328 15.5175 184.534 16.1094 184.946 16.5497C185.358 16.9901 185.893 17.2102 186.551 17.2102C186.948 17.2102 187.344 17.1108 187.737 16.9119C188.135 16.7131 188.464 16.4124 188.724 16.0099C188.989 15.6075 189.119 15.0961 189.115 14.4759ZM198.094 19.2202C197.038 19.2202 196.129 18.9811 195.367 18.5028C194.609 18.0199 194.027 17.3546 193.619 16.5071C193.212 15.6596 193.009 14.6889 193.009 13.5952C193.009 12.4872 193.217 11.5095 193.634 10.6619C194.05 9.80966 194.637 9.14441 195.395 8.66619C196.153 8.18797 197.045 7.94886 198.073 7.94886C198.901 7.94886 199.64 8.10275 200.288 8.41051C200.937 8.71354 201.46 9.13968 201.858 9.68892C202.26 10.2382 202.5 10.8797 202.575 11.6136H200.509C200.395 11.1023 200.135 10.6619 199.727 10.2926C199.325 9.9233 198.785 9.73864 198.108 9.73864C197.516 9.73864 196.998 9.89489 196.553 10.2074C196.112 10.5152 195.769 10.9555 195.523 11.5284C195.277 12.0966 195.153 12.7689 195.153 13.5455C195.153 14.3409 195.274 15.0275 195.516 15.6051C195.757 16.1828 196.098 16.6302 196.538 16.9474C196.983 17.2647 197.507 17.4233 198.108 17.4233C198.51 17.4233 198.875 17.3499 199.202 17.2031C199.533 17.0516 199.81 16.8362 200.033 16.5568C200.26 16.2775 200.419 15.9413 200.509 15.5483H202.575C202.5 16.2538 202.27 16.8835 201.886 17.4375C201.503 17.9915 200.989 18.4271 200.345 18.7443C199.706 19.0616 198.956 19.2202 198.094 19.2202ZM209.339 8.09091V9.79545H203.38V8.09091H209.339ZM204.978 5.47727H207.101V15.7969C207.101 16.2088 207.163 16.5189 207.286 16.7273C207.409 16.9309 207.568 17.0705 207.762 17.1463C207.961 17.2173 208.176 17.2528 208.408 17.2528C208.579 17.2528 208.728 17.241 208.856 17.2173C208.984 17.1937 209.083 17.1747 209.154 17.1605L209.538 18.9148C209.414 18.9621 209.239 19.0095 209.012 19.0568C208.785 19.1089 208.501 19.1373 208.16 19.142C207.601 19.1515 207.08 19.0521 206.597 18.8438C206.114 18.6354 205.724 18.3134 205.425 17.8778C205.127 17.4422 204.978 16.8954 204.978 16.2372V5.47727ZM211.088 19V8.09091H213.211V19H211.088ZM212.16 6.40767C211.791 6.40767 211.474 6.28456 211.208 6.03835C210.948 5.7874 210.818 5.48911 210.818 5.14347C210.818 4.79309 210.948 4.49479 211.208 4.24858C211.474 3.99763 211.791 3.87216 212.16 3.87216C212.529 3.87216 212.844 3.99763 213.105 4.24858C213.37 4.49479 213.502 4.79309 213.502 5.14347C213.502 5.48911 213.37 5.7874 213.105 6.03835C212.844 6.28456 212.529 6.40767 212.16 6.40767ZM220.063 19.2202C219.041 19.2202 218.148 18.9858 217.386 18.517C216.623 18.0483 216.032 17.3925 215.61 16.5497C215.189 15.7069 214.978 14.7221 214.978 13.5952C214.978 12.4635 215.189 11.474 215.61 10.6264C216.032 9.77888 216.623 9.12074 217.386 8.65199C218.148 8.18324 219.041 7.94886 220.063 7.94886C221.086 7.94886 221.979 8.18324 222.741 8.65199C223.503 9.12074 224.095 9.77888 224.516 10.6264C224.938 11.474 225.149 12.4635 225.149 13.5952C225.149 14.7221 224.938 15.7069 224.516 16.5497C224.095 17.3925 223.503 18.0483 222.741 18.517C221.979 18.9858 221.086 19.2202 220.063 19.2202ZM220.07 17.4375C220.733 17.4375 221.283 17.2623 221.718 16.9119C222.154 16.5616 222.476 16.0952 222.684 15.5128C222.897 14.9304 223.004 14.2888 223.004 13.5881C223.004 12.892 222.897 12.2528 222.684 11.6705C222.476 11.0833 222.154 10.6122 221.718 10.2571C221.283 9.90199 220.733 9.72443 220.07 9.72443C219.403 9.72443 218.849 9.90199 218.409 10.2571C217.973 10.6122 217.649 11.0833 217.436 11.6705C217.227 12.2528 217.123 12.892 217.123 13.5881C217.123 14.2888 217.227 14.9304 217.436 15.5128C217.649 16.0952 217.973 16.5616 218.409 16.9119C218.849 17.2623 219.403 17.4375 220.07 17.4375ZM229.043 12.5227V19H226.919V8.09091H228.957V9.86648H229.092C229.343 9.28883 229.736 8.82481 230.271 8.47443C230.811 8.12405 231.49 7.94886 232.31 7.94886C233.053 7.94886 233.704 8.10511 234.263 8.41761C234.821 8.72538 235.255 9.18466 235.562 9.79545C235.87 10.4062 236.024 11.1615 236.024 12.0611V19H233.901V12.3168C233.901 11.526 233.695 10.9081 233.283 10.4631C232.871 10.0133 232.305 9.78835 231.585 9.78835C231.093 9.78835 230.655 9.89489 230.271 10.108C229.892 10.321 229.592 10.6335 229.369 11.0455C229.151 11.4527 229.043 11.9451 229.043 12.5227Z" fill="#F7F7F7"/>
</svg>
