<svg width="40" height="40" viewBox="0 0 40 40" fill="none" xmlns="http://www.w3.org/2000/svg">
<path d="M37.7502 32.6166C37.8779 33.0964 37.8772 33.6014 37.7483 34.0809C37.6194 34.5604 37.3667 34.9976 37.0156 35.3487C36.6645 35.6998 36.2273 35.9525 35.7478 36.0814C35.2683 36.2103 34.7634 36.211 34.2835 36.0833L31.0335 35.2166C29.1669 36.1743 27.0982 36.6715 25.0002 36.6666C24.3307 36.6664 23.6622 36.6162 23.0002 36.5166C20.4271 36.1091 18.0321 34.9493 16.1169 33.1833C16.5835 33.1833 17.0335 33.1833 17.5002 33.0833C19.9117 32.7238 22.215 31.8396 24.2475 30.4931C26.2801 29.1465 27.9925 27.3704 29.2639 25.29C30.5354 23.2097 31.3349 20.8756 31.6061 18.4526C31.8773 16.0296 31.6136 13.5766 30.8335 11.2666C32.7901 12.2042 34.4883 13.6051 35.7807 15.3478C37.0732 17.0904 37.9209 19.1221 38.2502 21.2666C38.6714 24.0145 38.2166 26.8252 36.9502 29.2999L37.7502 32.6166ZM24.4169 7.23328C22.6722 5.49225 20.4791 4.2689 18.0811 3.69909C15.6831 3.12928 13.1741 3.23531 10.8327 4.0054C8.49138 4.7755 6.4093 6.17951 4.81774 8.06152C3.22617 9.94353 2.18743 12.2299 1.81686 14.6666C1.39565 17.4145 1.8505 20.2252 3.11686 22.6999L2.25019 26.0333C2.11506 26.5127 2.11186 27.0197 2.24093 27.5008C2.37 27.9819 2.62656 28.4192 2.98353 28.7666C3.33092 29.1236 3.76824 29.3801 4.24934 29.5092C4.73043 29.6383 5.23744 29.6351 5.71686 29.4999L8.96686 28.6333C10.8407 29.5621 12.909 30.0306 15.0002 29.9999C17.6388 30.002 20.2187 29.2212 22.4133 27.7562C24.6079 26.2913 26.3185 24.2081 27.3285 21.7705C28.3385 19.3328 28.6026 16.6503 28.0873 14.0625C27.5719 11.4747 26.3003 9.09802 24.4335 7.23328H24.4169Z" fill="#AAAFBB"/>
</svg>
