<svg width="40" height="40" viewBox="0 0 40 40" fill="none" xmlns="http://www.w3.org/2000/svg">
<path d="M20.9697 15.6078C19.1466 15.8655 17.5543 17.577 17.5389 17.5924C17.516 17.6161 17.4902 17.6368 17.462 17.6539C14.9851 19.2616 13.5889 18.0386 13.5312 17.9655C11.9466 16.5386 13.4005 14.1463 13.462 14.0463C14.1111 12.9674 14.8971 11.9771 15.8005 11.1001H9.07353L6.1543 20.7309C6.18565 20.7483 6.21418 20.7703 6.23891 20.7963C10.7697 25.9193 16.7851 30.4655 19.1581 32.1809C19.4051 32.3635 19.7122 32.4455 20.0174 32.4103C20.3225 32.3751 20.6029 32.2253 20.8017 31.9912C21.0006 31.7572 21.1032 31.4563 21.0887 31.1495C21.0741 30.8426 20.9436 30.5528 20.7235 30.3386L17.4581 27.0732C17.3865 27.0011 17.3463 26.9036 17.3463 26.802C17.3463 26.7004 17.3865 26.6029 17.4581 26.5309C17.4939 26.4948 17.5364 26.4662 17.5833 26.4467C17.6302 26.4272 17.6804 26.4171 17.7312 26.4171C17.782 26.4171 17.8323 26.4272 17.8791 26.4467C17.926 26.4662 17.9685 26.4948 18.0043 26.5309L19.7428 28.2693L21.2812 29.8078L22.0505 30.5963C22.3264 30.865 22.6966 31.015 23.0818 31.0141C23.467 31.0131 23.8365 30.8613 24.1112 30.5912C24.3858 30.3211 24.5437 29.9542 24.5511 29.5691C24.5584 29.1839 24.4146 28.8112 24.1505 28.5309L21.1543 25.4039L20.5851 24.8155C20.549 24.7797 20.5204 24.7372 20.5009 24.6903C20.4814 24.6435 20.4713 24.5932 20.4713 24.5424C20.4713 24.4916 20.4814 24.4414 20.5009 24.3945C20.5204 24.3476 20.549 24.3051 20.5851 24.2693C20.6208 24.2333 20.6634 24.2047 20.7102 24.1851C20.7571 24.1656 20.8074 24.1556 20.8581 24.1556C20.9089 24.1556 20.9592 24.1656 21.0061 24.1851C21.0529 24.2047 21.0955 24.2333 21.1312 24.2693L25.5043 28.8078C25.7161 29.0174 25.9841 29.161 26.2759 29.2211C26.5677 29.2812 26.8707 29.2554 27.1481 29.1466C27.4254 29.0379 27.6653 28.8509 27.8384 28.6085C28.0116 28.366 28.1106 28.0785 28.1235 27.7809C28.1299 27.5712 28.0921 27.3625 28.0126 27.1683C27.9331 26.9742 27.8136 26.7989 27.662 26.6539L25.0389 24.1155L23.212 22.3424C23.1713 22.3085 23.1381 22.2665 23.1144 22.2191C23.0907 22.1718 23.0771 22.12 23.0743 22.0671C23.0715 22.0142 23.0797 21.9613 23.0984 21.9118C23.117 21.8622 23.1457 21.817 23.1826 21.779C23.2195 21.741 23.2639 21.7111 23.3129 21.691C23.3619 21.671 23.4146 21.6613 23.4675 21.6626C23.5205 21.6638 23.5726 21.676 23.6206 21.6984C23.6686 21.7207 23.7115 21.7527 23.7466 21.7924L28.9389 26.8193C29.0751 26.9592 29.2382 27.0701 29.4183 27.1452C29.5985 27.2204 29.792 27.2583 29.9872 27.2566C30.1824 27.255 30.3752 27.2139 30.5541 27.1357C30.733 27.0575 30.8942 26.944 31.028 26.8019C31.1618 26.6597 31.2655 26.492 31.3327 26.3087C31.4 26.1255 31.4294 25.9305 31.4193 25.7355C31.4092 25.5406 31.3597 25.3497 31.2738 25.1744C31.188 24.9991 31.0675 24.843 30.9197 24.7155L20.9697 15.6078Z" fill="#AAAFBB"/>
<path d="M7.89963 8.84635C5.90293 7.94867 3.72571 7.52481 1.53809 7.60789V22.6925H3.88809C4.1389 22.6931 4.38307 22.6119 4.58364 22.4614C4.7842 22.3108 4.93023 22.0989 4.99962 21.8579L8.53039 10.231C8.6111 9.96293 8.59161 9.67469 8.47557 9.41996C8.35952 9.16522 8.15483 8.96136 7.89963 8.84635Z" fill="#AAAFBB"/>
<path d="M22.2151 9.5922C21.3856 9.25077 20.4588 9.2302 19.6151 9.53451C18.142 10.073 15.992 11.3653 14.1035 14.4499C14.1035 14.473 12.9228 16.373 14.0343 17.396C14.0728 17.4307 15.0651 18.2614 16.9881 17.0345C17.2651 16.746 18.9997 15.0076 21.0497 14.8191C21.1027 14.8147 21.156 14.8213 21.2063 14.8385C21.2566 14.8557 21.3028 14.8832 21.342 14.9191L31.4228 24.1499C31.4689 24.1922 31.5112 24.2384 31.5535 24.2845C32.7074 24.1076 33.4766 23.0537 33.6997 22.6691L30.0458 12.7114L22.2151 9.5922Z" fill="#AAAFBB"/>
<path d="M37.692 9.44227C35.4982 9.4277 33.3223 9.8378 31.2843 10.65C31.0102 10.7674 30.7923 10.9864 30.6761 11.261C30.56 11.5356 30.5546 11.8446 30.6612 12.123L34.942 23.773C35.0256 23.9978 35.1756 24.1918 35.3721 24.3292C35.5686 24.4666 35.8022 24.5409 36.042 24.5423H38.4612V9.4615C38.2689 9.44996 38.0035 9.44227 37.692 9.44227Z" fill="#AAAFBB"/>
</svg>
