<svg width="40" height="40" viewBox="0 0 40 40" fill="none" xmlns="http://www.w3.org/2000/svg">
<path d="M21.1719 19.6611V28.5888L28.9035 24.125V15.1973L21.1719 19.6611Z" fill="#AAAFBB"/>
<path d="M12.2686 13.1675L20.0002 17.6314L27.7318 13.1675L20.0002 8.70361L12.2686 13.1675Z" fill="#AAAFBB"/>
<path d="M18.8283 19.6611L11.0967 15.1973V24.125L18.8283 28.5888V19.6611Z" fill="#AAAFBB"/>
<path d="M35.2912 6.71516C34.4485 6.71516 33.6766 7.02195 33.0796 7.52891L20.0392 0L6.9518 7.55602C6.3507 7.03297 5.56648 6.71516 4.70898 6.71516C2.82211 6.71516 1.28711 8.25016 1.28711 10.137C1.28711 11.6407 2.2625 12.9201 3.61352 13.378V28.45L16.5684 35.9295C16.5279 36.1396 16.5059 36.3562 16.5059 36.578C16.5059 38.4648 18.0409 39.9998 19.9278 39.9998C21.8146 39.9998 23.3496 38.4648 23.3496 36.578C23.3496 36.3971 23.3352 36.2195 23.308 36.046L36.4648 28.4499V13.3515C37.7753 12.8715 38.713 11.6117 38.713 10.137C38.713 8.25023 37.178 6.71516 35.2912 6.71516ZM34.1175 27.0948L22.1673 33.9943C21.5666 33.473 20.7837 33.1563 19.9277 33.1563C19.1143 33.1563 18.3666 33.4421 17.7787 33.9179L5.96094 27.0948V13.3206C7.23008 12.8198 8.13078 11.582 8.13078 10.137C8.13078 9.95758 8.11672 9.78141 8.09 9.60937L20.0392 2.71047L31.9174 9.56836C31.8863 9.75344 31.8693 9.9432 31.8693 10.137C31.8693 11.6117 32.807 12.8715 34.1175 13.3515V27.0948Z" fill="#AAAFBB"/>
</svg>
