<svg width="40" height="40" viewBox="0 0 40 40" fill="none" xmlns="http://www.w3.org/2000/svg">
<path d="M30.9395 12.5317C30.9395 12.4289 30.927 12.3254 30.9009 12.2235C30.0846 9.01764 27.8975 6.39877 25 4.95888V7.5C25 8.19031 24.4409 8.75 23.75 8.75C23.0591 8.75 22.5 8.19031 22.5 7.5V4.10095V3.75C22.5 3.05962 21.9404 2.5 21.25 2.5H18.75C18.0596 2.5 17.5 3.05962 17.5 3.75V4.1008V7.5C17.5 8.19031 16.9403 8.75 16.25 8.75C15.5597 8.75 15 8.19031 15 7.5V4.95888C12.1019 6.3987 9.91478 9.01764 9.09851 12.2235C9.07257 12.3255 9.06334 12.4287 9.06815 12.5309C8.17947 12.6781 7.5 13.4446 7.5 14.375C7.5 15.4105 8.33946 16.25 9.375 16.25H30.625C31.6605 16.25 32.5 15.4105 32.5 14.375C32.5 13.4472 31.8245 12.6819 30.9395 12.5317Z" fill="#AAAFBB"/>
<path d="M28.75 18.75H11.25V20C11.25 22.3863 12.2124 24.5504 13.7668 26.1305C13.7628 26.1708 13.75 26.209 13.75 26.25V28.3544L19.9689 31.1182L26.25 27.9774V26.25C26.25 26.2089 26.2372 26.1707 26.2332 26.1303C27.7875 24.5502 28.75 22.3862 28.75 20V18.75Z" fill="#AAAFBB"/>
<path d="M12.5 37.5002H27.5V30.1479L20.5591 33.6184C20.3833 33.7063 20.1917 33.7502 20 33.7502C19.8273 33.7502 19.6539 33.7142 19.4922 33.6422L12.5 30.5346V37.5002Z" fill="#AAAFBB"/>
<path d="M10 30.1401C7.02333 31.0519 4.43918 32.9623 2.70998 35.5567C2.45424 35.94 2.43044 36.4332 2.64772 36.8397C2.86562 37.2462 3.2892 37.5001 3.75002 37.5001H10V30.1401Z" fill="#AAAFBB"/>
<path d="M37.29 35.5565C35.561 32.9623 32.977 31.052 30 30.1401V37.4999H36.25C36.7114 37.4999 37.135 37.246 37.3523 36.8395C37.5696 36.433 37.5452 35.9398 37.29 35.5565Z" fill="#AAAFBB"/>
</svg>
