<svg width="40" height="40" viewBox="0 0 40 40" fill="none" xmlns="http://www.w3.org/2000/svg">
<g clip-path="url(#clip0_31_307)">
<path d="M39.9856 7.67255C39.9856 13.7496 37.3363 18.1647 37.2249 18.3488C37.0005 18.7156 36.612 18.9167 36.2112 18.9167C36.0008 18.9167 35.7888 18.861 35.5969 18.745C35.0367 18.4045 34.8572 17.6756 35.1961 17.1154C35.2208 17.0752 37.6117 13.0563 37.6117 7.67255C37.6117 4.60229 35.6155 2.37388 32.864 2.37388C30.2456 2.37388 28.1162 4.50325 28.1162 7.12318C28.1162 8.23894 28.6563 11.074 28.8637 12.0721C28.9983 12.7143 28.5851 13.3426 27.9429 13.4773C27.3007 13.6088 26.6724 13.1987 26.5393 12.558C26.4573 12.1665 25.7393 8.68616 25.7393 7.12318C25.7393 3.19561 28.9349 0 32.864 0C36.9231 0 39.9856 3.29774 39.9856 7.67255ZM33.0652 9.54039C33.5372 13.485 34.2211 21.1715 33.435 21.9545L16.1865 39.2046C15.1264 40.2662 13.4041 40.2662 12.3425 39.203L0.808888 27.671C-0.252702 26.611 -0.252702 24.8886 0.808888 23.827L18.059 6.57846C18.3329 6.30455 21.3165 6.29217 24.6715 6.46704C24.6529 6.68833 24.6049 6.89725 24.6049 7.12318C24.6049 7.9836 24.7953 9.31755 24.9949 10.4906C24.6436 11.0121 24.4378 11.6388 24.4378 12.3151C24.4378 14.1164 25.8986 15.5772 27.6999 15.5772C29.5012 15.5772 30.9621 14.1164 30.9621 12.3151C30.9621 11.2055 30.4065 10.2275 29.5601 9.63943C29.3867 8.60724 29.2475 7.61065 29.2475 7.12318C29.2475 7.01795 29.2691 6.92046 29.2784 6.81678C29.6916 6.86011 30.0986 6.90498 30.4839 6.95296C32.7634 7.23305 32.7866 7.22841 33.0652 9.54039ZM23.8714 22.4497C23.6037 21.7054 23.158 20.8124 22.1908 19.7849L23.5 18.4742L22.0423 17.018L20.6294 18.4324C18.7383 17.1371 16.7885 17.2423 15.4653 18.5655C14.0231 20.0077 14.3635 21.8384 15.422 23.9663C16.1493 25.4395 16.2824 26.2875 15.7176 26.8524C15.1373 27.4327 14.201 27.1804 13.3514 26.3324C12.3858 25.3668 11.8194 24.1736 11.5378 23.2064L9.34959 24.5032C9.60338 25.3791 10.2874 26.628 11.253 27.6555L9.82622 29.0839L11.2824 30.5416L12.816 29.0096C14.8386 30.4364 16.8782 30.2445 18.2013 28.9214C19.5554 27.5642 19.6746 26.0477 18.5139 23.6382C17.7092 21.9112 17.5158 21.0631 17.9924 20.5881C18.4103 20.1702 19.1531 20.0511 20.1202 21.0183C21.1927 22.0907 21.5486 23.1322 21.742 23.6831L23.8714 22.4497Z" fill="#AAAFBB"/>
</g>
<defs>
<clipPath id="clip0_31_307">
<rect width="40" height="40" fill="white"/>
</clipPath>
</defs>
</svg>
