<svg width="40" height="40" viewBox="0 0 40 40" fill="none" xmlns="http://www.w3.org/2000/svg">
<path d="M4.45022 9.24976V17.4248C4.4377 26.0998 9.87525 34.0123 17.9752 37.1248C18.6252 37.3748 19.3127 37.4998 20.0002 37.4998C20.6877 37.4998 21.3752 37.3748 22.0252 37.1248L23.2378 36.6622C30.7252 33.7747 35.5627 26.5373 35.5502 18.2247V9.24976C35.5502 8.57478 35.0252 8.02478 34.3502 7.99976C29.8627 7.82481 25.2752 6.06227 20.7378 2.7373C20.3002 2.4248 19.7002 2.4248 19.2627 2.7373C14.7253 6.06227 10.1377 7.82481 5.65024 7.99976C4.9752 8.02478 4.45022 8.57478 4.45022 9.24976ZM13.0127 18.9748C13.5002 18.4873 14.3002 18.4873 14.7877 18.9748L18.3252 22.5123L25.2127 15.6248C25.7002 15.1373 26.5002 15.1373 26.9878 15.6248C27.4752 16.1123 27.4752 16.8997 26.9878 17.3873L19.2127 25.1623C18.9752 25.3998 18.6502 25.5248 18.3252 25.5248C17.9877 25.5248 17.6752 25.3998 17.4377 25.1623L13.0127 20.7373C12.5252 20.2498 12.5252 19.4623 13.0127 18.9748Z" fill="#AAAFBB"/>
</svg>
