<svg width="40" height="40" viewBox="0 0 40 40" fill="none" xmlns="http://www.w3.org/2000/svg">
<path d="M37.3471 30.4359L20.5736 39.85C20.2174 40.05 19.783 40.05 19.4268 39.85L2.65332 30.4359C1.85566 29.9891 1.85723 28.8383 2.65332 28.3922L6.8252 26.0508L18.2799 32.4797C19.3482 33.0799 20.6538 33.079 21.7205 32.4797L33.1752 26.0508L37.3471 28.3922C38.1447 28.8391 38.1432 29.9898 37.3471 30.4359Z" fill="#AAAFBB"/>
<path d="M37.3471 18.9781L33.1752 16.6367L21.7205 23.0656C20.6541 23.6648 19.3478 23.6656 18.2799 23.0656L6.8252 16.6367L2.65332 18.9781C1.85723 19.4242 1.85566 20.575 2.65332 21.0219L19.4268 30.4359C19.783 30.6359 20.2174 30.6359 20.5736 30.4359L37.3471 21.0219C38.1432 20.5758 38.1447 19.425 37.3471 18.9781ZM9.64082 22.5641C8.99316 22.5641 8.46895 22.0391 8.46895 21.3922C8.46895 20.7445 8.99316 20.2203 9.64082 20.2203C10.2877 20.2203 10.8127 20.7445 10.8127 21.3922C10.8127 22.0391 10.2877 22.5641 9.64082 22.5641ZM14.6307 25.4664C13.983 25.4664 13.4588 24.9414 13.4588 24.2945C13.4588 23.6469 13.983 23.1227 14.6307 23.1227C15.2775 23.1227 15.8025 23.6469 15.8025 24.2945C15.8025 24.9414 15.2775 25.4664 14.6307 25.4664ZM20.0002 28.1852C19.3533 28.1852 18.8283 27.6609 18.8283 27.0133C18.8283 26.3664 19.3533 25.8414 20.0002 25.8414C20.6471 25.8414 21.1721 26.3664 21.1721 27.0133C21.1721 27.6609 20.6471 28.1852 20.0002 28.1852ZM25.3697 25.4664C24.7229 25.4664 24.1979 24.9414 24.1979 24.2945C24.1979 23.6469 24.7229 23.1227 25.3697 23.1227C26.0174 23.1227 26.5416 23.6469 26.5416 24.2945C26.5416 24.9414 26.0174 25.4664 25.3697 25.4664ZM30.3596 22.5641C29.7127 22.5641 29.1877 22.0391 29.1877 21.3922C29.1877 20.7445 29.7127 20.2203 30.3596 20.2203C31.0072 20.2203 31.5314 20.7445 31.5314 21.3922C31.5314 22.0391 31.0072 22.5641 30.3596 22.5641Z" fill="#AAAFBB"/>
<path d="M37.3471 11.6078L20.5736 21.0219C20.2173 21.2219 19.783 21.2219 19.4268 21.0219L2.65332 11.6078C1.85566 11.1609 1.85723 10.0102 2.65332 9.56406L19.4268 0.15C19.7831 -0.05 20.2174 -0.05 20.5736 0.15L37.3471 9.56406C38.1447 10.0109 38.1432 11.1617 37.3471 11.6078Z" fill="#AAAFBB"/>
</svg>
