<svg width="18" height="25" viewBox="0 0 18 25" fill="none" xmlns="http://www.w3.org/2000/svg">
<path d="M8.68 24.8C10.9821 24.8 13.1899 23.8855 14.8177 22.2577C16.4455 20.6299 17.36 18.4221 17.36 16.12V8.68C17.36 6.37792 16.4455 4.17013 14.8177 2.54231C13.1899 0.914497 10.9821 0 8.68 0C6.37792 0 4.17013 0.914497 2.54231 2.54231C0.914497 4.17013 0 6.37792 0 8.68V16.12C0 18.4221 0.914497 20.6299 2.54231 22.2577C4.17013 23.8855 6.37792 24.8 8.68 24.8ZM1.24 8.68C1.24 6.70679 2.02385 4.8144 3.41913 3.41913C4.8144 2.02385 6.70679 1.24 8.68 1.24C10.6532 1.24 12.5456 2.02385 13.9409 3.41913C15.3361 4.8144 16.12 6.70679 16.12 8.68V16.12C16.12 18.0932 15.3361 19.9856 13.9409 21.3809C12.5456 22.7761 10.6532 23.56 8.68 23.56C6.70679 23.56 4.8144 22.7761 3.41913 21.3809C2.02385 19.9856 1.24 18.0932 1.24 16.12V8.68Z" fill="white"/>
<path d="M8.05973 12.09H8.11553L8.23953 12.2202C8.29717 12.2783 8.36574 12.3244 8.44129 12.3559C8.51685 12.3874 8.59788 12.4036 8.67973 12.4036C8.76158 12.4036 8.84262 12.3874 8.91817 12.3559C8.99372 12.3244 9.06229 12.2783 9.11993 12.2202L9.24393 12.09H9.29973V12.0342L12.8399 8.50017L11.9595 7.61977L9.29973 10.2858V3.71997H8.05973V10.2858L5.39993 7.61977L4.51953 8.50017L8.05973 12.0342V12.09Z" fill="white"/>
</svg>
