<svg width="20" height="20" viewBox="0 0 20 20" fill="none" xmlns="http://www.w3.org/2000/svg">
  <path opacity="0.5" fill-rule="evenodd" clip-rule="evenodd" d="M5.65155 14.6626C5.78777 15.0078 5.93807 15.3411 6.10059 15.6624C6.95639 17.3479 8.16823 18.6873 9.59247 19.4943V14.1964C8.2106 14.223 6.88602 14.3855 5.65064 14.6636L5.65155 14.6626ZM4.75348 10.1708C4.79011 11.4937 5.01087 12.7531 5.38194 13.908L5.40825 13.9016C6.72153 13.6023 8.12792 13.427 9.59225 13.3994V10.1698H4.75244L4.75348 10.1708ZM5.38288 5.63851C5.01087 6.7934 4.79106 8.05376 4.75348 9.37573H9.59329V6.14614C8.12877 6.1186 6.72163 5.94417 5.40929 5.64398L5.38298 5.63755L5.38288 5.63851ZM9.59334 0.0521767C8.17391 0.855461 6.96481 2.19211 6.10819 3.87307C5.94286 4.19805 5.79067 4.53496 5.65259 4.88474C6.8879 5.16199 8.21258 5.32448 9.59346 5.3511L9.59334 0.0521767ZM4.85862 4.68646C3.89104 4.42206 2.98734 4.08514 2.16444 3.68764C2.40117 3.39662 2.65388 3.11937 2.92252 2.85775C4.28277 1.52845 6.03395 0.5792 7.99344 0.189849C6.95072 1.04911 6.0592 2.18565 5.38007 3.51861C5.18937 3.89318 5.01558 4.28333 4.85963 4.68636L4.85862 4.68646ZM3.93988 9.37573C3.97652 7.98582 4.20668 6.65847 4.59466 5.43921C3.54628 5.15002 2.56742 4.77823 1.67875 4.33757C0.683922 5.78899 0.0761143 7.5157 2.40814e-05 9.37585L3.93988 9.37573ZM4.59466 14.1073C4.20574 12.8872 3.97653 11.5607 3.93895 10.1708H0C0.0760927 12.0307 0.683898 13.7576 1.67872 15.2091C2.5674 14.7684 3.54628 14.3974 4.59466 14.1073ZM7.99251 19.3566C6.03386 18.9674 4.28371 18.0191 2.92351 16.6887C2.65484 16.4262 2.40213 16.1489 2.16542 15.8579C2.98835 15.4604 3.89299 15.1235 4.86057 14.8582C5.01463 15.2566 5.18655 15.6421 5.37441 16.0121C6.05454 17.3515 6.94886 18.4937 7.99357 19.3557L7.99251 19.3566ZM15.2495 14.8894C15.101 15.2723 14.9348 15.6441 14.7544 16.0021C14.0902 17.3167 13.2147 18.4533 12.173 19.3217C14.064 18.9123 15.7551 17.9805 17.0768 16.6888C17.3454 16.4263 17.5982 16.149 17.8349 15.8589C17.0429 15.4761 16.1759 15.1502 15.2496 14.8904L15.2495 14.8894ZM16.1832 10.1708H20C19.9239 12.0307 19.3161 13.7576 18.3213 15.2091C17.4636 14.784 16.5223 14.4232 15.5162 14.1386C15.9145 12.8984 16.1457 11.5571 16.1832 10.1708ZM15.5181 5.40795C15.9127 6.63629 16.1466 7.9748 16.1832 9.37667H20C19.9239 7.51673 19.3161 5.78986 18.3213 4.3384C17.4645 4.76345 16.5232 5.1233 15.5182 5.40882L15.5181 5.40795ZM12.1701 0.223033C14.063 0.631562 15.7538 1.56427 17.0765 2.85686C17.3452 3.11942 17.5979 3.39666 17.8346 3.68674C17.0436 4.06956 16.1765 4.39546 15.2503 4.65527C15.0915 4.24674 14.9131 3.85198 14.7186 3.47377C14.0516 2.1766 13.1827 1.06862 12.169 0.222093L12.1701 0.223033ZM14.4613 4.85825C14.3203 4.5039 14.1644 4.16148 13.9953 3.83189C13.1217 2.13536 11.8873 0.793135 10.4397 0.00183629C10.4284 0.000918314 10.4181 0.000918207 10.4078 0V5.35037C11.8112 5.32283 13.1565 5.15575 14.4078 4.87023L14.4613 4.85738L14.4613 4.85825ZM15.3687 9.37596C15.3311 8.04298 15.1076 6.7734 14.7318 5.61195C14.6848 5.62296 14.6379 5.63398 14.5909 5.645C13.2786 5.94427 11.8712 6.11961 10.4069 6.14716V9.37674H15.3689L15.3687 9.37596ZM14.7309 13.9348C15.1104 12.7616 15.3321 11.4902 15.3697 10.1708H10.4077V13.4004C11.8722 13.4279 13.2793 13.6023 14.5917 13.9025C14.6377 13.9136 14.6848 13.9238 14.7309 13.9348ZM10.4454 19.5439C10.4322 19.5448 10.42 19.5448 10.4069 19.5458V14.1954C11.8103 14.2229 13.1556 14.39 14.4069 14.6755L14.4595 14.6875C14.328 15.0189 14.1833 15.3402 14.0264 15.6514C13.1725 17.3406 11.9541 18.7038 10.4802 19.5219C10.468 19.5283 10.4557 19.5357 10.4454 19.5439Z" fill="#413421" />
</svg>